Coordinates
version=1
nRows=41
nColumns=38
inDegrees=no

Units are S.I. units (second, meters, Newtons, ...)
If the header above contains a line with 'inDegrees', this indicates whether rotational values are in degrees (yes) or radians (no).

endheader
time	pelvis_tilt	pelvis_list	pelvis_rotation	pelvis_tx	pelvis_ty	pelvis_tz	hip_flexion_r	hip_adduction_r	hip_rotation_r	knee_angle_r	ankle_angle_r	subtalar_angle_r	mtp_angle_r	hip_flexion_l	hip_adduction_l	hip_rotation_l	knee_angle_l	ankle_angle_l	subtalar_angle_l	mtp_angle_l	lumbar_extension	lumbar_bending	lumbar_rotation	arm_flex_r	arm_add_r	arm_rot_r	elbow_flex_r	pro_sup_r	wrist_flex_r	wrist_dev_r	arm_flex_l	arm_add_l	arm_rot_l	elbow_flex_l	pro_sup_l	wrist_flex_l	wrist_dev_l
1.99	2.76009	1.4587	-1.03735	0.550274	1.38835	1.04812	0.219777	0.0907105	0.035752	0.661247	-0.237717	0	0	-0.0576822	-0.232845	-0.19598	1.18606	-0.371103	0	0	-0.3149	0.0977823	0.14214	0.0617923	-0.66777	0.90195	1.00322	0.499687	0	0	0.106029	-0.332732	0.534278	0.605985	0.972774	0	0
2	2.79668	1.45495	-1.07588	0.549991	1.39824	1.05024	0.200142	0.088658	0.0325818	0.655611	-0.236329	0	0	-0.0413172	-0.234034	-0.194154	1.21087	-0.350015	0	0	-0.321142	0.0955736	0.145872	0.062627	-0.670161	0.902075	1.00615	0.497346	0	0	0.108205	-0.334025	0.536438	0.608469	0.970656	0	0
2.01	2.82988	1.45124	-1.11116	0.549632	1.40801	1.05231	0.180823	0.086644	0.0293752	0.649656	-0.23583	0	0	-0.0248782	-0.234515	-0.193717	1.23065	-0.332693	0	0	-0.327433	0.0934737	0.149598	0.0632023	-0.672446	0.901332	1.00868	0.494459	0	0	0.110293	-0.33476	0.538015	0.61071	0.968691	0	0
2.02	2.86085	1.44814	-1.14464	0.549288	1.41762	1.05425	0.162668	0.0844396	0.0261122	0.643993	-0.235636	0	0	-0.00775761	-0.233945	-0.19381	1.2451	-0.317736	0	0	-0.333243	0.0908788	0.153429	0.0643559	-0.674283	0.901273	1.01037	0.492116	0	0	0.112483	-0.335119	0.539434	0.612278	0.967125	0	0
2.03	2.88995	1.44587	-1.17662	0.548993	1.42706	1.056	0.146307	0.0816679	0.0228538	0.639179	-0.235706	0	0	0.0100948	-0.232364	-0.193417	1.25477	-0.302052	0	0	-0.338275	0.0877078	0.157257	0.0664628	-0.675676	0.902479	1.01128	0.49111	0	0	0.114792	-0.335249	0.54069	0.613198	0.966442	0	0
2.04	2.9187	1.44402	-1.20856	0.548751	1.43632	1.05762	0.130978	0.0785201	0.0190821	0.634915	-0.235838	0	0	0.0277178	-0.229901	-0.192574	1.25984	-0.283644	0	0	-0.343122	0.0840874	0.161146	0.069079	-0.677109	0.904082	1.01228	0.490706	0	0	0.117102	-0.335216	0.541303	0.614107	0.966096	0	0
2.05	2.94755	1.44217	-1.24077	0.548552	1.44539	1.05915	0.116064	0.0750404	0.0144585	0.630924	-0.235916	0	0	0.0443029	-0.226609	-0.191494	1.2603	-0.262738	0	0	-0.348246	0.0802221	0.165056	0.0714776	-0.678786	0.904541	1.01397	0.489671	0	0	0.119387	-0.335081	0.541207	0.615433	0.965545	0	0
2.06	2.97536	1.44052	-1.27185	0.548363	1.4543	1.06053	0.101874	0.0713192	0.00912877	0.627292	-0.235975	0	0	0.0605779	-0.222725	-0.190077	1.25627	-0.242363	0	0	-0.353262	0.0762393	0.168727	0.0738348	-0.680458	0.904445	1.01603	0.488813	0	0	0.121901	-0.335086	0.541387	0.616835	0.965289	0	0
2.07	3.00237	1.43905	-1.30219	0.548189	1.46305	1.06178	0.0883379	0.0674847	0.00422572	0.623692	-0.236609	0	0	0.0763844	-0.218208	-0.188395	1.24751	-0.223692	0	0	-0.358209	0.072124	0.172364	0.0763238	-0.681816	0.903885	1.01766	0.487814	0	0	0.12466	-0.334955	0.541584	0.618099	0.964985	0	0
2.08	3.02788	1.43785	-1.33087	0.547999	1.47168	1.06291	0.0752666	0.0636935	-0.000190011	0.619956	-0.237098	0	0	0.0919402	-0.213015	-0.186043	1.23396	-0.207728	0	0	-0.362883	0.0680508	0.175726	0.0789857	-0.682715	0.902989	1.01843	0.486148	0	0	0.127537	-0.334625	0.541613	0.619018	0.964539	0	0
2.09	3.05221	1.43691	-1.35813	0.547773	1.4802	1.06395	0.0624707	0.0600586	-0.00355082	0.615763	-0.237444	0	0	0.107136	-0.207106	-0.182863	1.21577	-0.195527	0	0	-0.367224	0.0640069	0.178527	0.0820453	-0.683108	0.902462	1.01831	0.484763	0	0	0.130461	-0.334185	0.541712	0.61937	0.964351	0	0
2.1	3.07776	1.43613	-1.38633	0.547453	1.48862	1.0649	0.0498574	0.0561882	-0.00636398	0.611446	-0.237402	0	0	0.121574	-0.200053	-0.178891	1.19319	-0.185378	0	0	-0.371517	0.0596948	0.180688	0.0857778	-0.68313	0.903077	1.01747	0.484758	0	0	0.133428	-0.333593	0.541805	0.619075	0.964174	0	0
2.11	3.10517	1.43525	-1.41621	0.547029	1.49699	1.06577	0.0372541	0.0519396	-0.00966358	0.607447	-0.236872	0	0	0.134747	-0.191809	-0.174114	1.16662	-0.177032	0	0	-0.376059	0.055111	0.18222	0.0893872	-0.68278	0.902774	1.01615	0.484192	0	0	0.136214	-0.332754	0.541431	0.618299	0.963585	0	0
2.12	3.1326	1.43425	-1.44611	0.546563	1.50532	1.06658	0.0246687	0.047664	-0.0133222	0.603648	-0.235836	0	0	0.146362	-0.182762	-0.168742	1.13631	-0.168833	0	0	-0.380788	0.0503635	0.18353	0.0938254	-0.682327	0.903654	1.0142	0.484452	0	0	0.139026	-0.331874	0.541174	0.61713	0.963088	0	0
2.13	-3.12636	1.43342	-1.47307	0.546127	1.51356	1.06734	0.012878	0.0435788	-0.0152358	0.600221	-0.235063	0	0	0.156915	-0.173551	-0.162992	1.10293	-0.160613	0	0	-0.385263	0.0458139	0.184881	0.0998276	-0.681943	0.90705	1.01156	0.487368	0	0	0.142206	-0.330691	0.541216	0.61492	0.962867	0	0
2.14	-3.10487	1.43343	-1.49726	0.545663	1.52173	1.06793	0.00253909	0.0397217	-0.01608	0.597423	-0.234399	0	0	0.167406	-0.164249	-0.157318	1.06797	-0.152701	0	0	-0.388627	0.041529	0.186192	0.105444	-0.681406	0.910296	1.00904	0.489696	0	0	0.145454	-0.329301	0.541048	0.612319	0.962825	0	0
2.15	-3.07913	1.43306	-1.52542	0.544994	1.52989	1.06847	-0.00855231	0.0352515	-0.0157602	0.593961	-0.233312	0	0	0.176153	-0.153474	-0.152351	1.03122	-0.144081	0	0	-0.39205	0.0369512	0.1868	0.110694	-0.680901	0.913008	1.0068	0.491687	0	0	0.148389	-0.327994	0.540881	0.609839	0.96364	0	0
2.16	-3.05582	1.43229	-1.55173	0.544472	1.53795	1.06899	-0.0195065	0.0309962	-0.0169899	0.59059	-0.232857	0	0	0.183043	-0.143139	-0.148727	0.992231	-0.135968	0	0	-0.396097	0.0323593	0.187773	0.115621	-0.680503	0.913928	1.00514	0.492254	0	0	0.150815	-0.326994	0.539329	0.608546	0.964946	0	0
2.17	-3.03186	1.43253	-1.57883	0.543995	1.54593	1.06929	-0.0285685	0.0267441	-0.0172181	0.588251	-0.232297	0	0	0.189809	-0.13265	-0.144681	0.95266	-0.129137	0	0	-0.399204	0.0274188	0.188716	0.12083	-0.680027	0.915488	1.00352	0.493676	0	0	0.15295	-0.326283	0.537314	0.608097	0.965029	0	0
2.18	-3.00593	1.43296	-1.60787	0.543479	1.5539	1.06949	-0.0370102	0.0221632	-0.01713	0.586661	-0.231572	0	0	0.195311	-0.121571	-0.14066	0.910961	-0.124109	0	0	-0.401839	0.0221384	0.189422	0.126605	-0.679303	0.919099	1.00137	0.497782	0	0	0.154841	-0.32587	0.535533	0.607889	0.96472	0	0
2.19	-2.98051	1.43351	-1.63663	0.542924	1.56191	1.06957	-0.0449054	0.0174992	-0.0172655	0.585774	-0.231007	0	0	0.199413	-0.110452	-0.136871	0.866579	-0.120834	0	0	-0.403982	0.0168661	0.19011	0.131959	-0.677736	0.921974	0.99817	0.50207	0	0	0.156209	-0.32559	0.533776	0.607762	0.964366	0	0
2.2	-2.95764	1.4344	-1.66281	0.54233	1.56998	1.06948	-0.052113	0.0131362	-0.0180757	0.585428	-0.230354	0	0	0.202635	-0.099912	-0.132583	0.820018	-0.118703	0	0	-0.405494	0.0120573	0.19055	0.135353	-0.675658	0.920175	0.994931	0.503418	0	0	0.156926	-0.325386	0.531722	0.607789	0.963376	0	0
2.21	-2.93714	1.43567	-1.68686	0.541732	1.57804	1.06922	-0.0585275	0.00907644	-0.0191154	0.585569	-0.229514	0	0	0.205132	-0.0902136	-0.128107	0.771094	-0.119192	0	0	-0.407129	0.0076116	0.191758	0.138091	-0.674501	0.91785	0.992975	0.505722	0	0	0.157661	-0.325268	0.529873	0.608452	0.96229	0	0
2.22	-2.9199	1.4375	-1.70824	0.54118	1.58606	1.06873	-0.0637651	0.00558684	-0.0192662	0.586687	-0.228036	0	0	0.20706	-0.0815712	-0.1231	0.719821	-0.122787	0	0	-0.40891	0.00365233	0.194112	0.140452	-0.674805	0.915743	0.993115	0.509608	0	0	0.158291	-0.32526	0.528001	0.610377	0.961433	0	0
2.23	-2.90783	1.43903	-1.72548	0.540673	1.59391	1.06813	-0.0688813	0.00285852	-0.0170785	0.588407	-0.226202	0	0	0.207307	-0.0742062	-0.117748	0.665558	-0.129904	0	0	-0.41086	0.000310987	0.197352	0.14272	-0.676171	0.913389	0.994773	0.513584	0	0	0.158653	-0.325346	0.52613	0.613135	0.960738	0	0
2.24	-2.9007	1.4405	-1.73759	0.540027	1.60178	1.06743	-0.0743469	0.000623043	-0.0151557	0.589745	-0.22396	0	0	0.206263	-0.0677637	-0.11103	0.60906	-0.139132	0	0	-0.411619	-0.00193019	0.200307	0.144387	-0.677514	0.910961	0.99639	0.516956	0	0	0.158472	-0.325299	0.524639	0.61549	0.9596	0	0
2.25	-2.89656	1.44454	-1.74392	0.539002	1.61009	1.06646	-0.0793842	-0.00115989	-0.018146	0.587358	-0.223104	0	0	0.207065	-0.0619052	-0.100315	0.551486	-0.147808	0	0	-0.408974	-0.00249885	0.200975	0.144873	-0.67716	0.908644	0.996044	0.521287	0	0	0.157285	-0.325171	0.523198	0.616447	0.958837	0	0
2.26	-2.89405	1.45041	-1.74832	0.537963	1.61844	1.06511	-0.0810171	-0.00209446	-0.0196975	0.589032	-0.221323	0	0	0.209035	-0.0570722	-0.0879342	0.492768	-0.15539	0	0	-0.404071	-0.00245933	0.20148	0.145507	-0.676779	0.908115	0.995548	0.527432	0	0	0.155561	-0.325386	0.522308	0.617273	0.958593	0	0
2.27	-2.89524	1.45697	-1.74912	0.536839	1.62685	1.0635	-0.0819449	-0.00237287	-0.0207531	0.591483	-0.21886	0	0	0.210203	-0.0532067	-0.0748624	0.431016	-0.163419	0	0	-0.397806	-0.00161234	0.202182	0.145277	-0.676782	0.907125	0.995476	0.533474	0	0	0.153072	-0.325237	0.520453	0.618057	0.957958	0	0
2.28	-2.9004	1.46336	-1.74606	0.535615	1.63533	1.06182	-0.0834407	-0.00227492	-0.0213421	0.593426	-0.216172	0	0	0.210371	-0.0505557	-0.0638629	0.373252	-0.166857	0	0	-0.391463	-0.000164715	0.203011	0.144279	-0.676985	0.904696	0.995739	0.537762	0	0	0.150159	-0.324858	0.518334	0.618774	0.957591	0	0
2.29	-2.91225	1.46912	-1.73664	0.5344	1.64392	1.06012	-0.0858297	-0.00180295	-0.0220138	0.595313	-0.213447	0	0	0.209482	-0.0493182	-0.0560784	0.32009	-0.166403	0	0	-0.385621	0.00184065	0.204348	0.142671	-0.677605	0.901516	0.996806	0.540613	0	0	0.146709	-0.324495	0.515801	0.620244	0.956963	0	0
2.3	-3.10846	1.44749	-1.54086	0.532429	1.65204	1.06443	-0.109025	-0.01689	-0.19906	0.607935	-0.278198	0	0	0.171809	-0.0687364	-0.0542848	0.255313	-0.179749	0	0	-0.420213	0.0248349	0.208433	0.149054	-0.68838	0.89731	1.00586	0.546523	0	0	0.14932	-0.31512	0.502789	0.619524	0.964487	0	0
2.31	-3.10675	1.44733	-1.54697	0.531345	1.66099	1.06377	-0.119951	-0.0190062	-0.197416	0.604208	-0.2797	0	0	0.161323	-0.0652831	-0.0535614	0.201062	-0.184858	0	0	-0.42094	0.0233738	0.210407	0.148698	-0.688655	0.895383	1.00699	0.549847	0	0	0.145824	-0.315231	0.498321	0.622136	0.9671	0	0
2.32	-2.96211	1.48005	-1.69672	0.53064	1.67053	1.05545	-0.100286	-0.00261774	-0.026726	0.600689	-0.212975	0	0	0.196147	-0.0471877	-0.0421183	0.169834	-0.17482	0	0	-0.373761	0.00751924	0.210111	0.136421	-0.682122	0.892709	1.00502	0.551995	0	0	0.132603	-0.324132	0.502156	0.629856	0.963677	0	0
2.33	3.13858	1.45053	-1.51933	0.529055	1.67909	1.06092	-0.135444	-0.0183689	-0.190549	0.602228	-0.277655	0	0	0.147789	-0.0654212	-0.051216	0.110671	-0.194858	0	0	-0.415322	0.0266021	0.217133	0.146409	-0.693305	0.89487	1.01305	0.556013	0	0	0.136368	-0.31565	0.493499	0.628654	0.967006	0	0
2.34	3.11571	1.45262	-1.5003	0.52783	1.68873	1.05938	-0.143506	-0.0178738	-0.191169	0.600595	-0.27837	0	0	0.142935	-0.0669535	-0.0497501	0.0759947	-0.196331	0	0	-0.410453	0.0287267	0.219729	0.143543	-0.693577	0.894121	1.01398	0.558043	0	0	0.130814	-0.316096	0.491372	0.630671	0.96733	0	0
2.35	-3.01129	1.48102	-1.66332	0.527642	1.69908	1.05189	-0.126829	-0.00567664	-0.0273795	0.604221	-0.214032	0	0	0.172722	-0.0495752	-0.0459049	0.0613981	-0.188163	0	0	-0.367822	0.00918391	0.220806	0.130594	-0.683903	0.891211	1.00949	0.560371	0	0	0.117816	-0.326869	0.496552	0.638568	0.961899	0	0
2.36	-3.02701	1.48436	-1.65219	0.526572	1.70856	1.05041	-0.132949	-0.00646427	-0.0262697	0.603393	-0.211215	0	0	0.174673	-0.0516954	-0.0425272	0.0515391	-0.184013	0	0	-0.362898	0.00974581	0.224335	0.127958	-0.682671	0.890058	1.00848	0.563532	0	0	0.114116	-0.327773	0.497348	0.639241	0.95855	0	0
2.37	-3.05426	1.48491	-1.63101	0.525315	1.71835	1.04892	-0.141413	-0.0071476	-0.0243444	0.604697	-0.211554	0	0	0.171991	-0.0543069	-0.0457273	0.0437224	-0.1814	0	0	-0.360078	0.0116145	0.229517	0.12375	-0.684181	0.887896	1.01077	0.566113	0	0	0.109227	-0.327986	0.497404	0.64098	0.956266	0	0
2.38	3.04375	1.45702	-1.44813	0.523122	1.72743	1.05353	-0.175443	-0.0210108	-0.186699	0.600085	-0.284238	0	0	0.138483	-0.0750828	-0.0490747	0.0387931	-0.186095	0	0	-0.398184	0.0326288	0.235988	0.127421	-0.694512	0.882943	1.01922	0.571397	0	0	0.112502	-0.318803	0.48859	0.638874	0.961823	0	0
2.39	-3.08749	1.4848	-1.60768	0.522969	1.73788	1.04637	-0.157766	-0.0112101	-0.0248811	0.608864	-0.222823	0	0	0.174326	-0.0576688	-0.0453108	0.0648061	-0.168397	0	0	-0.357684	0.0119634	0.237914	0.115418	-0.683275	0.88107	1.01245	0.574519	0	0	0.100166	-0.329572	0.493379	0.645819	0.958446	0	0
